<mxfile host="65bd71144e">
    <diagram id="xT0kDm-OHsFzKCEfXdvZ" name="Page-1">
        <mxGraphModel dx="728" dy="768" grid="1" gridSize="10" guides="1" tooltips="1" connect="1" arrows="1" fold="1" page="1" pageScale="1" pageWidth="850" pageHeight="1100" math="0" shadow="0">
            <root>
                <mxCell id="0"/>
                <mxCell id="1" parent="0"/>
                <mxCell id="2" value="Aboveit-CLI" style="swimlane;childLayout=stackLayout;resizeParent=1;resizeParentMax=0;startSize=20;html=1;" vertex="1" parent="1">
                    <mxGeometry x="160.00000000000045" y="240" width="360" height="480" as="geometry"/>
                </mxCell>
                <mxCell id="3" value="User" style="swimlane;startSize=20;html=1;" vertex="1" parent="2">
                    <mxGeometry y="20" width="120" height="460" as="geometry"/>
                </mxCell>
                <mxCell id="7" value="" style="rounded=1;whiteSpace=wrap;html=1;" vertex="1" parent="3">
                    <mxGeometry x="15" y="40" width="90" height="50" as="geometry"/>
                </mxCell>
                <mxCell id="4" value="CLI" style="swimlane;startSize=20;html=1;" vertex="1" parent="2">
                    <mxGeometry x="120" y="20" width="120" height="460" as="geometry"/>
                </mxCell>
                <mxCell id="5" value="" style="swimlane;startSize=20;html=1;" vertex="1" parent="2">
                    <mxGeometry x="240" y="20" width="120" height="460" as="geometry"/>
                </mxCell>
            </root>
        </mxGraphModel>
    </diagram>
</mxfile>